<svg width="32" height="32" viewBox="0 0 32 32" fill="none" xmlns="http://www.w3.org/2000/svg">
<path d="M31.6635 0H0.212891V32H31.6635V0Z" fill="white"/>
<g clip-path="url(#clip0_149_191)">
<path d="M22.4179 12.7405C22.428 12.8826 22.428 13.0248 22.428 13.1669C22.428 17.5019 19.1507 22.4969 13.1608 22.4969C11.3155 22.4969 9.6012 21.9588 8.15918 21.0248C8.42137 21.0552 8.67345 21.0654 8.94573 21.0654C10.4684 21.0654 11.8701 20.5476 12.9894 19.6644C11.5575 19.6339 10.3575 18.6898 9.94403 17.3903C10.1457 17.4207 10.3474 17.441 10.5592 17.441C10.8516 17.441 11.1441 17.4004 11.4163 17.3294C9.92388 17.0248 8.80453 15.705 8.80453 14.1111V14.0705C9.23812 14.3141 9.74236 14.4664 10.2768 14.4867C9.39947 13.8979 8.8247 12.8928 8.8247 11.7557C8.8247 11.1466 8.98602 10.5882 9.26839 10.1009C10.8717 12.0908 13.2818 13.3902 15.9843 13.5324C15.9339 13.2887 15.9036 13.035 15.9036 12.7811C15.9036 10.974 17.3557 9.50195 19.1608 9.50195C20.0986 9.50195 20.9456 9.89789 21.5406 10.5375C22.2767 10.3954 22.9826 10.1212 23.6078 9.74561C23.3658 10.507 22.8515 11.1466 22.1759 11.5527C22.8313 11.4817 23.4666 11.2989 24.0515 11.0451C23.6079 11.6948 23.0532 12.2735 22.4179 12.7405V12.7405Z" fill="black"/>
</g>
<defs>
<clipPath id="clip0_149_191">
<rect width="15.8924" height="16" fill="white" transform="translate(8.15918 8)"/>
</clipPath>
</defs>
</svg>
